<svg xmlns="http://www.w3.org/2000/svg" width="37" height="37" fill="none"><circle cx="18.5" cy="18.5" r="18.5" fill="#73473F"/><path fill="#FFD6C5" d="M13.37 23.204c-.921 0-1.714-.217-2.378-.651-.665-.435-1.177-1.034-1.535-1.797-.358-.762-.537-1.634-.537-2.614 0-.997.184-1.877.55-2.64.37-.767.886-1.366 1.547-1.796.665-.435 1.44-.652 2.327-.652.69 0 1.312.128 1.866.383a3.574 3.574 0 0 1 1.362 1.074c.353.46.573.998.658 1.611h-1.508c-.115-.447-.371-.844-.768-1.189-.392-.35-.92-.524-1.585-.524-.588 0-1.103.153-1.547.46-.438.303-.781.731-1.029 1.285-.243.55-.364 1.195-.364 1.937 0 .758.12 1.419.358 1.981.243.563.584 1 1.023 1.31.443.312.963.467 1.56.467.391 0 .747-.068 1.067-.204.32-.136.59-.332.812-.588.221-.256.379-.563.473-.92h1.508a3.495 3.495 0 0 1-.633 1.565c-.332.46-.773.827-1.323 1.1-.545.268-1.18.402-1.905.402Zm10.054 0c-.92 0-1.713-.217-2.378-.651-.665-.435-1.176-1.034-1.534-1.797-.358-.762-.537-1.634-.537-2.614 0-.997.183-1.877.55-2.64.37-.767.886-1.366 1.547-1.796.665-.435 1.44-.652 2.326-.652.69 0 1.313.128 1.867.383a3.574 3.574 0 0 1 1.361 1.074c.354.46.574.998.659 1.611h-1.509c-.115-.447-.37-.844-.767-1.189-.392-.35-.92-.524-1.585-.524-.588 0-1.104.153-1.547.46-.439.303-.782.731-1.029 1.285-.243.55-.364 1.195-.364 1.937 0 .758.119 1.419.358 1.981.242.563.583 1 1.022 1.31.444.312.963.467 1.56.467.392 0 .748-.068 1.067-.204.32-.136.59-.332.812-.588.222-.256.38-.563.473-.92h1.509a3.495 3.495 0 0 1-.633 1.565c-.332.46-.773.827-1.323 1.1-.546.268-1.18.402-1.905.402Z"/></svg>