<svg xmlns="http://www.w3.org/2000/svg" width="37" height="37" fill="none"><circle cx="18.5" cy="18.5" r="18.5" fill="#73473F"/><path fill="#FFD6C5" d="M14 13.189v5.908c0 .499.404.903.903.903h8.194a.903.903 0 0 0 .903-.903v-5.883a.903.903 0 0 0-.377-.734l-4.3-3.085a.903.903 0 0 0-1.084.024l-3.894 3.06a.903.903 0 0 0-.345.71Z"/><rect width="14" height="3.161" x="12" y="18.71" fill="#FFD6C5" rx="1.581"/><path stroke="#FFD6C5" stroke-width=".452" d="M16.516 21.645v.494c0 .26-.112.508-.308.68l-1.498 1.31M19 21.645v3.387M21.484 21.645v.678c0 .284.134.552.361.722l1.445 1.084"/><circle cx="13.806" cy="25.484" r="1.806" fill="#FFD6C5"/><circle cx="18.806" cy="26.806" r="1.806" fill="#FFD6C5"/><circle cx="24.194" cy="25.484" r="1.806" fill="#FFD6C5"/><path stroke="#73473F" stroke-width=".452" d="M16.968 15.548v3.388h3.838v-3.388a.903.903 0 0 0-.903-.903h-2.032a.903.903 0 0 0-.903.903Z"/></svg>