<svg xmlns="http://www.w3.org/2000/svg" width="144" height="144" fill="none"><g clip-path="url(#a)"><mask id="b" width="144" height="144" x="0" y="0" maskUnits="userSpaceOnUse" style="mask-type:luminance"><path fill="#fff" d="M144 0H0v144h144V0Z"/></mask><g mask="url(#b)"><path stroke="#000" stroke-width="3" d="M23.858 62.702 10.213 84.099c-.496 2.17.827 2.61 1.55 2.558h4.032v50.935h-4.109a2.029 2.029 0 0 0-1.628 1.241c-.31 1.674.698 2.248 1.24 2.326H132.24c1.303.186 1.68-.802 1.706-1.318.31-1.675-1.007-2.197-1.706-2.249h-4.186V86.89h3.954c2.295-.124 2.145-1.757 1.783-2.558l-13.412-21.32c-.434-.745-1.37-1.086-1.784-1.163h-36.05l-6.098-8.606v-7.132c5.556-.026 14.177-.062 14.55 0 .371.062 1.188-.284 1.55-.465.868-.434.723-1.628.542-2.171l-3.41-5.04 2.868-4.186c.434-.62.646-1.344.697-1.628-.062-1.488-1.214-1.86-1.783-1.86H73.863v-2.094c-.373-1.364-1.396-1.705-1.86-1.705-1.49.124-1.81 1.189-1.784 1.705v24.576l-8.606 8.606H26.106c-1.674 0-2.197.568-2.248.853Z"/><path stroke="#000" stroke-width="3" d="M15.873 86.734h24.886c.336.026 1.132-.046 1.628-.542l29.538-25.23 29.848 25.23c.154.284.682.837 1.55.775h25.274"/><path stroke="#000" stroke-width="3" d="M71.847 98.529c6.343 0 11.484-5.142 11.484-11.484 0-6.343-5.142-11.484-11.484-11.484s-11.484 5.141-11.484 11.484c0 6.342 5.142 11.484 11.484 11.484Z"/><path stroke="#000" stroke-linecap="round" stroke-width="3" d="M71.925 80.144v7.133h-6.202"/><mask id="c" width="14" height="20" x="23" y="92" maskUnits="userSpaceOnUse" style="mask-type:luminance"><path fill="#fff" d="M33.926 92.998h-7.369a2.776 2.776 0 0 0-2.776 2.776v13.399a2.776 2.776 0 0 0 2.776 2.776h7.37a2.776 2.776 0 0 0 2.775-2.776v-13.4a2.776 2.776 0 0 0-2.776-2.775Z"/></mask><g mask="url(#c)"><path stroke="#000" stroke-width="3" d="M33.926 92.998h-7.369a2.776 2.776 0 0 0-2.776 2.776v13.399a2.776 2.776 0 0 0 2.776 2.776h7.37a2.776 2.776 0 0 0 2.775-2.776v-13.4a2.776 2.776 0 0 0-2.776-2.775Z"/></g><path stroke="#000" stroke-linecap="round" stroke-width="2" d="M25 102h10.037"/><mask id="d" width="14" height="20" x="42" y="92" maskUnits="userSpaceOnUse" style="mask-type:luminance"><path fill="#fff" d="M52.88 92.997h-7.37a2.776 2.776 0 0 0-2.776 2.776v13.399a2.776 2.776 0 0 0 2.776 2.776h7.37a2.776 2.776 0 0 0 2.776-2.776V95.774a2.776 2.776 0 0 0-2.777-2.777Z"/></mask><g mask="url(#d)"><path stroke="#000" stroke-width="3" d="M52.88 92.997h-7.37a2.776 2.776 0 0 0-2.776 2.776v13.399a2.776 2.776 0 0 0 2.776 2.776h7.37a2.776 2.776 0 0 0 2.776-2.776V95.773a2.776 2.776 0 0 0-2.777-2.776Z"/></g><path stroke="#000" stroke-linecap="round" stroke-width="2" d="M44.127 102h10.037"/><mask id="e" width="14" height="20" x="88" y="92" maskUnits="userSpaceOnUse" style="mask-type:luminance"><path fill="#fff" d="M98.532 92.137h-7.37a2.776 2.776 0 0 0-2.775 2.776v13.399a2.776 2.776 0 0 0 2.776 2.776h7.369a2.776 2.776 0 0 0 2.776-2.776V94.913a2.776 2.776 0 0 0-2.776-2.776Z"/></mask><g mask="url(#e)"><path stroke="#000" stroke-width="3" d="M98.532 92.137h-7.37a2.776 2.776 0 0 0-2.775 2.776v13.399a2.776 2.776 0 0 0 2.776 2.776h7.369a2.776 2.776 0 0 0 2.776-2.776V94.913a2.776 2.776 0 0 0-2.776-2.776Z"/></g><path stroke="#000" stroke-linecap="round" stroke-width="2" d="M89.781 101.613h10.037"/><mask id="f" width="14" height="20" x="107" y="92" maskUnits="userSpaceOnUse" style="mask-type:luminance"><path fill="#fff" d="M117.485 92.137h-7.369a2.776 2.776 0 0 0-2.776 2.776v13.399a2.776 2.776 0 0 0 2.776 2.776h7.369a2.776 2.776 0 0 0 2.776-2.776V94.913a2.776 2.776 0 0 0-2.776-2.776Z"/></mask><g mask="url(#f)"><path stroke="#000" stroke-width="3" d="M117.485 92.137h-7.369a2.776 2.776 0 0 0-2.776 2.776v13.399a2.776 2.776 0 0 0 2.776 2.776h7.369a2.776 2.776 0 0 0 2.776-2.776V94.913a2.776 2.776 0 0 0-2.776-2.776Z"/></g><path stroke="#000" stroke-linecap="round" stroke-width="2" d="M108.73 101.613h10.038"/><mask id="g" width="14" height="20" x="24" y="114" maskUnits="userSpaceOnUse" style="mask-type:luminance"><path fill="#fff" d="M34.79 114.531h-7.37a2.776 2.776 0 0 0-2.776 2.777v13.398a2.776 2.776 0 0 0 2.777 2.776h7.369a2.775 2.775 0 0 0 2.776-2.776v-13.398a2.776 2.776 0 0 0-2.776-2.777Z"/></mask><g mask="url(#g)"><path stroke="#000" stroke-width="3" d="M34.79 114.532h-7.37a2.776 2.776 0 0 0-2.776 2.776v13.399a2.776 2.776 0 0 0 2.777 2.776h7.369a2.776 2.776 0 0 0 2.776-2.776v-13.399a2.776 2.776 0 0 0-2.776-2.776Z"/></g><path stroke="#000" stroke-linecap="round" stroke-width="2" d="M26.037 124.009h10.037"/><mask id="h" width="14" height="20" x="41" y="114" maskUnits="userSpaceOnUse" style="mask-type:luminance"><path fill="#fff" d="M52.018 114.532H44.65a2.776 2.776 0 0 0-2.776 2.776v13.399a2.776 2.776 0 0 0 2.776 2.776h7.37a2.776 2.776 0 0 0 2.775-2.776v-13.399a2.776 2.776 0 0 0-2.776-2.776Z"/></mask><g mask="url(#h)"><path stroke="#000" stroke-width="3" d="M52.018 114.532H44.65a2.776 2.776 0 0 0-2.776 2.776v13.399a2.776 2.776 0 0 0 2.776 2.776h7.37a2.776 2.776 0 0 0 2.775-2.776v-13.399a2.776 2.776 0 0 0-2.776-2.776Z"/></g><path stroke="#000" stroke-linecap="round" stroke-width="2" d="M43.266 124.009h10.037"/><mask id="i" width="14" height="20" x="89" y="113" maskUnits="userSpaceOnUse" style="mask-type:luminance"><path fill="#fff" d="M99.397 113.671h-7.369a2.775 2.775 0 0 0-2.776 2.776v13.398a2.776 2.776 0 0 0 2.776 2.777h7.369a2.776 2.776 0 0 0 2.776-2.777v-13.398a2.776 2.776 0 0 0-2.776-2.776Z"/></mask><g mask="url(#i)"><path stroke="#000" stroke-width="3" d="M99.397 113.671h-7.369a2.775 2.775 0 0 0-2.776 2.776v13.398a2.776 2.776 0 0 0 2.776 2.777h7.369a2.776 2.776 0 0 0 2.776-2.777v-13.398a2.776 2.776 0 0 0-2.776-2.776Z"/></g><path stroke="#000" stroke-linecap="round" stroke-width="2" d="M90.643 123.146h10.037"/><mask id="j" width="14" height="20" x="106" y="113" maskUnits="userSpaceOnUse" style="mask-type:luminance"><path fill="#fff" d="M116.624 113.671h-7.369a2.776 2.776 0 0 0-2.776 2.776v13.399a2.776 2.776 0 0 0 2.776 2.776h7.369a2.776 2.776 0 0 0 2.776-2.776v-13.399a2.776 2.776 0 0 0-2.776-2.776Z"/></mask><g mask="url(#j)"><path stroke="#000" stroke-width="3" d="M116.624 113.671h-7.369a2.775 2.775 0 0 0-2.776 2.776v13.398a2.776 2.776 0 0 0 2.776 2.777h7.369a2.776 2.776 0 0 0 2.776-2.777v-13.398a2.776 2.776 0 0 0-2.776-2.776Z"/></g><path stroke="#000" stroke-linecap="round" stroke-width="2" d="M107.871 123.146H117.908"/><path stroke="#000" stroke-linecap="round" stroke-width="2.5" d="M61.566 140.263v-27.789c.025-1.044.82-3.145 3.802-3.206h16.025c.969 0 2.922.791 2.981 3.951v27.044"/><path stroke="#000" stroke-linecap="round" stroke-width="3" d="M62.566 116.573h20.66M72.969 116.648v23.616"/></g></g><defs><clipPath id="a"><path fill="#fff" d="M0 0h144v144H0z"/></clipPath></defs></svg>