<svg xmlns="http://www.w3.org/2000/svg" width="270" height="270" fill="none"><circle cx="135" cy="135" r="133" stroke="#fff" stroke-width="3"/><path stroke="#fff" stroke-width="3" d="M75.736 154.855c3.956-.51 6.008 2.021 6.54 3.35v.479c5.616-3.318 14.039-4.573 17.549-4.786 10.337-1.914 22.068 1.755 26.641 3.829h35.256c4.594-.383 7.019 3.881 7.657 6.062.894 6.253-3.775 8.774-6.221 9.252l-35.256 3.351c-.851.159-2.68.829-3.191 2.233-.51 1.404.957 2.18 1.755 2.393l29.513-1.755c14.421-1.404 20.792-4.733 22.174-6.222l23.611-14.198c6.891-4.977 11.911-2.818 13.56-1.116 3.828 4.849.212 9.465-2.074 11.167l-41.159 24.886c-6.509 4.978-13.134 6.966-15.634 7.339h-9.093l-62.376-2.553c-.383 2.68-3.669 4.095-5.264 4.467l-14.198.957c-6.51.766-8.668-4.254-8.934-6.86l-2.552-30.47c-.51-8.295 4.041-10.688 6.38-10.848l15.316-.957Z"/><path stroke="#fff" stroke-width="3" d="M176.877 166.501c.894-1.532-.266-4.467-.957-5.743l19.782-9.732c4.211-1.531 6.753-.212 7.497.638-4.594.639-19.462 10.157-26.322 14.837Zm-3.829-10.529c0-1.149-2.127-2.819-3.19-3.51l12.124-5.105c5.36-1.914 7.977-.478 8.615.479-4.084.51-13.401 5.636-17.549 8.136Z"/><circle cx="69.674" cy="192.345" r="5.041" stroke="#fff" stroke-width="3"/><path stroke="#fff" stroke-width="3" d="M114.182 76.207c-5.871-.255-7.338 4.892-7.338 7.498v30.151c2.935 11.997 12.922 21.058 17.548 24.089 11.869 7.275 17.495 8.561 18.824 8.296 6.382-1.787 13.826-6.275 16.751-8.296 15.57-10.337 18.718-23.238 18.346-28.396V83.705c.638-5.87-4.52-7.445-7.179-7.498-10.72-1.148-20.101-6.54-23.451-9.093-4.467-3.829-8.455-1.595-9.891 0-10.975 7.402-20.313 9.146-23.61 9.093Z"/><path stroke="#fff" stroke-width="3" d="M115.458 106.199V84.822c11.487 0 22.866-7.02 27.12-10.529v31.906h-27.12Zm27.28 31.427v-31.108h26.641c.128 4.85-.904 8.934-1.436 10.369-3.445 9.955-18.239 17.974-25.205 20.739Z"/></svg>