<svg xmlns="http://www.w3.org/2000/svg" width="217" height="217" fill="none"><circle cx="108.5" cy="108.5" r="106.5" stroke="#fff" stroke-width="3"/><path stroke="#fff" stroke-linecap="round" stroke-width="3" d="M94.208 83.945h22.427M94.208 94.059h22.427m-22.427 9.673h22.427m-22.427 7.916h22.427m38.698-26.824c1.612-8.355-.704-26.12-21.108-26.824-5.57.586-16.798 4.573-17.15 15.83-.352 11.258-.146 39.284 0 51.89"/><path stroke="#fff" stroke-linecap="round" stroke-width="3" d="M120.593 64.597c-4.398-7.915-32.98-10.114-32.98 7.476v47.492M41.44 84.824h45.732m29.903 0H176"/><path stroke="#fff" stroke-linecap="round" stroke-width="3" d="M41 121.323c1.759-.879 6.156-1.055 9.674 5.277 1.026 1.026 3.87 2.199 7.036-1.319 3.958-4.397 8.355-6.156 12.753-1.319 4.397 4.837 6.596 4.397 11.873-.44 5.276-4.837 8.794 0 10.553 1.759 1.76 1.759 8.355 3.958 11.873-3.078 2.815-5.629 8.502.879 10.994 4.837 2.052 1.319 7.211 2.199 11.433-4.837 5.277-8.795 11.873 4.397 12.752 4.397.88 0 4.398 2.639 8.795-6.156 1.613-1.612 5.805-2.902 9.674 4.837 4.838 9.674 12.313-4.397 13.193-4.397h3.957M41 137.153c1.759-.879 6.156-1.055 9.674 5.277 1.026 1.026 3.87 2.199 7.036-1.319 3.958-4.397 8.355-6.156 12.753-1.319 4.397 4.837 6.596 4.397 11.873-.44 5.276-4.837 8.794 0 10.553 1.759 1.76 1.759 8.355 3.958 11.873-3.078 2.815-5.629 8.502.879 10.994 4.837 2.052 1.319 7.211 2.199 11.433-4.837 5.277-8.795 11.873 4.397 12.752 4.397.88 0 4.398 2.639 8.795-6.156 1.613-1.612 5.805-2.902 9.674 4.837 4.838 9.674 12.313-4.397 13.193-4.397h3.957M41 151.226c1.759-.88 6.156-1.056 9.674 5.277 1.026 1.026 3.87 2.198 7.036-1.32 3.958-4.397 8.355-6.156 12.753-1.319 4.397 4.837 6.596 4.398 11.873-.44 5.276-4.837 8.794 0 10.553 1.759 1.76 1.759 8.355 3.958 11.873-3.078 2.815-5.628 8.502.88 10.994 4.837 2.052 1.319 7.211 2.199 11.433-4.837 5.277-8.794 11.873 4.398 12.752 4.398.88 0 4.398 2.638 8.795-6.157 1.613-1.612 5.805-2.902 9.674 4.837 4.838 9.675 12.313-4.397 13.193-4.397h3.957"/><path stroke="#fff" stroke-linecap="round" stroke-width="3" d="M117.075 73.391c0-8.355-22.427-12.752-23.306 1.76v50.57m54.528-40.897c.293-6.596-1.847-19.7-12.753-19.348-13.631.44-11.433 12.752-11.433 19.348v40.896"/></svg>