<svg xmlns="http://www.w3.org/2000/svg" width="270" height="270" fill="none"><circle cx="135" cy="135" r="133" stroke="#fff" stroke-width="3"/><path stroke="#fff" stroke-linecap="round" stroke-width="3" d="M197.17 120.027c-.752-3.383-4.848-7.216-15.222 4.51-12.966 14.657-6.201 30.443-16.912 35.516m32.134-40.026c-3.608-3.608-16.537 25.181-22.551 40.026h-9.583m32.134-40.026c-3.968 30.299-8.628 45.135-17.819 51.301m-14.315-11.275h-23.678c-2.255 4.135-1.917 12.854 17.476 14.658 8.732.812 15.342.088 20.517-3.383m0 0 7.108 17.477"/><path stroke="#fff" stroke-linecap="round" stroke-width="3" d="M156.58 158.925v-10.147c.188-2.256 2.255-6.54 9.02-5.638 1.127.188 3.833 1.353 5.637 4.51M91.5 177.5l-3.135 10.741M121 177l3.446 11.241m-34.389-5.074h83.435m-101.475.563h12.402m2.819-23.113h48.483m-56.376-51.302c10.712 0 34.164-2.481 42.282-12.403 8.118-9.922 20.295-1.127 25.369 4.51l19.167-14.093"/><rect width="87.945" height="38.335" x="78.781" y="80" stroke="#fff" stroke-width="3" rx="3"/><path stroke="#fff" stroke-width="3" d="M122.754 153.288v-19.805a5 5 0 0 0-5-5H83.781a5 5 0 0 0-5 5v9.657"/><path stroke="#fff" stroke-width="3" d="M165.6 142.013v-8.53a5 5 0 0 0-5-5h-35.591a2.256 2.256 0 0 0-2.255 2.255v2.255"/><path stroke="#fff" stroke-linecap="round" stroke-width="3" d="M72.017 183.73v-33.261c-.188-1.691 1.127-5.074 7.892-5.074 2.443-.188 7.329.564 7.329 5.074v16.349"/><path stroke="#fff" stroke-width="3" d="M82.164 168.818a2 2 0 0 1 2-2h43.355a2 2 0 0 1 2 2v1.147a7 7 0 0 1-7 7H89.164a7 7 0 0 1-7-7v-1.147Z"/><path stroke="#fff" stroke-linecap="round" stroke-width="3" d="m153.5 174.5-4.83 14.868"/></svg>