<svg xmlns="http://www.w3.org/2000/svg" width="270" height="270" fill="none"><circle cx="135" cy="135" r="133" stroke="#fff" stroke-width="3"/><path stroke="#fff" stroke-linecap="round" stroke-linejoin="round" stroke-width="3.532" d="m152.14 155.026 5.72 12.3s25.713 5.46 25.713 18.447c0 9.227-11.44 9.227-11.44 9.227h-30.466l-15-8.334"/><path stroke="#fff" stroke-linecap="round" stroke-linejoin="round" stroke-width="3.532" d="m117.86 155.026-5.714 12.3s-25.72 5.46-25.72 18.447c0 9.227 11.44 9.227 11.44 9.227h13.8l15-8.334L145 175"/><path stroke="#fff" stroke-linecap="round" stroke-linejoin="round" stroke-width="3.532" d="M75 161.173s14.287-3.073 22.86-6.146c8.567-43.054 34.273-39.98 37.14-39.98 2.867 0 28.573-3.074 37.14 39.98 8.573 3.066 22.86 6.146 22.86 6.146m-60-59.506a13.333 13.333 0 1 0 0-26.665 13.333 13.333 0 0 0 0 26.665Z"/></svg>