<svg xmlns="http://www.w3.org/2000/svg" width="144" height="144" fill="none"><g clip-path="url(#a)"><mask id="b" width="144" height="144" x="0" y="0" maskUnits="userSpaceOnUse" style="mask-type:luminance"><path fill="#fff" d="M144 0H0v144h144V0Z"/></mask><g mask="url(#b)"><path stroke="#000" stroke-width="3" d="M13.315 142.356H2.068V76.701c-.608-7.295 2.99-9.626 4.864-9.879l105.777-36.171c4.256-2.31 6.738.962 7.447 2.888v33.283h17.022c3.404.486 3.951 3.445 3.799 4.863V142.356H49.486m-36.171 0v-41.947c.253-1.62 1.763-4.71 5.775-4.103h26.596c1.419.304 4.165 1.55 3.8 4.103v41.947m-36.171 0h36.17"/><path stroke="#000" stroke-linecap="round" stroke-width="3" d="M122.892 49.497H96.447M122.739 58.767H96.295"/><path stroke="#000" stroke-width="3" d="M13.315 109.984h36.323M13.315 121.686h36.323M13.315 133.541h36.323M76.842 142.356v-34.348c.05-.962.76-2.918 3.191-3.039h37.843c.861 0 2.614.638 2.736 3.191v34.196M98.576 105.12v37.843"/><path stroke="#000" stroke-width="3" d="M56.325 142.355V70.773c-.202-1.469.669-4.286 5.775-3.8h58.665M56.326 99.801h84.653"/><mask id="c" width="63" height="18" x="66" y="74" maskUnits="userSpaceOnUse" style="mask-type:luminance"><path fill="#fff" d="M66.068 74.676h4.362l4.606 11.238h.196l4.607-11.238h4.362v16.727h-3.43V80.515h-.14l-4.329 10.806h-2.336l-4.328-10.846h-.14v10.928h-3.43V74.676Zm23.93 16.727h-3.79l5.774-16.727h4.558l5.766 16.727h-3.79l-4.19-12.905h-.13l-4.199 12.905Zm-.237-6.575h8.951v2.76h-8.951v-2.76Zm14.558 6.575V74.676h3.537v13.811h7.171v2.916h-10.708Zm13.05 0V74.676h3.536v13.811h7.172v2.916h-10.708Z"/></mask><g mask="url(#c)"><path fill="#000" d="M66.068 74.676v-4h-4v4h4Zm4.362 0 3.701-1.517-1.018-2.483H70.43v4Zm4.606 11.238-3.7 1.517 1.017 2.483h2.683v-4Zm.196 0v4h2.684l1.018-2.483-3.702-1.517Zm4.607-11.238v-4h-2.683l-1.018 2.483 3.701 1.517Zm4.362 0h4v-4h-4v4Zm0 16.727v4h4v-4h-4Zm-3.43 0h-4v4h4v-4Zm0-10.888h4v-4h-4v4Zm-.14 0v-4h-2.706l-1.007 2.513 3.713 1.487Zm-4.329 10.806v4h2.707l1.007-2.512-3.714-1.488Zm-2.336 0-3.715 1.483 1.005 2.517h2.71v-4Zm-4.328-10.846 3.715-1.483-1.005-2.517h-2.71v4Zm-.14 0v-4h-4v4h4Zm0 10.928v4h4v-4h-4Zm-3.43 0h-4v4h4v-4Zm0-12.727h4.362v-8h-4.362v8Zm.66-2.483 4.607 11.238 7.403-3.034-4.607-11.239-7.402 3.035Zm8.308 13.721h.196v-8h-.196v8Zm3.898-2.483 4.606-11.238-7.402-3.034-4.607 11.238 7.403 3.034Zm.905-8.755h4.362v-8h-4.362v8Zm.362-4v16.727h8V74.676h-8Zm4 12.727h-3.43v8h3.43v-8Zm.57 4V80.515h-8v10.888h8Zm-4-14.888h-.14v8h.14v-8Zm-3.853 2.513L72.59 89.834l7.427 2.975 4.328-10.806-7.426-2.975Zm-.616 8.293h-2.336v8h2.336v-8Zm1.38 2.517-4.33-10.846-7.43 2.965 4.33 10.847 7.43-2.966Zm-8.044-13.363h-.14v8h.14v-8Zm-4.14 4v10.928h8V80.475h-8Zm4 6.928h-3.43v8h3.43v-8Zm.57 4V74.676h-8v16.727h8Zm19.93 0v4h2.904l.9-2.763-3.805-1.237Zm-3.79 0-3.781-1.305-1.832 5.305h5.613v-4Zm5.774-16.727v-4h-2.85l-.93 2.694 3.78 1.306Zm4.558 0 3.781-1.304-.93-2.696H96.54v4Zm5.766 16.727v4h5.61l-1.829-5.304-3.781 1.304Zm-3.79 0-3.804 1.235.897 2.765h2.907v-4Zm-4.19-12.905 3.805-1.235-.898-2.765h-2.907v4Zm-.13 0v-4H91.29l-.898 2.763 3.804 1.237Zm-4.435 6.33v-4h-4v4h4Zm8.951 0h4v-4h-4v4Zm0 2.76v4h4v-4h-4Zm-8.951 0h-4v4h4v-4Zm.236-.185h-3.79v8h3.79v-8Zm-.008 5.305 5.774-16.727-7.562-2.61-5.774 16.727 7.562 2.61Zm1.993-14.032h4.558v-8h-4.558v8Zm.776-2.697 5.766 16.728 7.563-2.608-5.766-16.727-7.563 2.607Zm9.548 11.424h-3.79v8h3.79v-8Zm.014 2.765-4.19-12.905-7.608 2.47 4.19 12.905 7.608-2.47Zm-7.994-15.67h-.13v8h.13v-8Zm-3.934 2.763-4.198 12.904L93.8 92.64 98 79.735l-7.607-2.474Zm-.631 11.567h8.951v-8h-8.951v8Zm4.951-4v2.76h8v-2.76h-8Zm4-1.24h-8.951v8h8.951v-8Zm-4.951 4v-2.76h-8v2.76h8Zm10.558 3.815h-4v4h4v-4Zm0-16.727v-4h-4v4h4Zm3.537 0h4v-4h-4v4Zm0 13.811h-4v4h4v-4Zm7.171 0h4v-4h-4v4Zm0 2.916v4h4v-4h-4Zm-6.708 0V74.676h-8v16.727h8Zm-4-12.727h3.537v-8h-3.537v8Zm-.463-4v13.811h8V74.676h-8Zm4 17.811h7.171v-8h-7.171v8Zm3.171-4v2.916h8v-2.916h-8Zm4-1.084h-10.708v8h10.708v-8Zm2.342 4h-4v4h4v-4Zm0-16.727v-4h-4v4h4Zm3.536 0h4v-4h-4v4Zm0 13.811h-4v4h4v-4Zm7.172 0h4v-4h-4v4Zm0 2.916v4h4v-4h-4Zm-6.708 0V74.676h-8v16.727h8Zm-4-12.727h3.536v-8h-3.536v8Zm-.464-4v13.811h8V74.676h-8Zm4 17.811h7.172v-8h-7.172v8Zm3.172-4v2.916h8v-2.916h-8Zm4-1.084h-10.708v8h10.708v-8Z"/></g></g></g><defs><clipPath id="a"><path fill="#fff" d="M0 0h144v144H0z"/></clipPath></defs></svg>