<svg xmlns="http://www.w3.org/2000/svg" width="37" height="37" fill="none"><circle cx="18.5" cy="18.5" r="18.5" fill="#73473F"/><circle cx="12.014" cy="18.659" r="4.014" fill="#FFD6C5"/><circle cx="25.026" cy="18.659" r="4.014" fill="#FFD6C5"/><circle cx="18.658" cy="12.014" r="4.014" fill="#FFD6C5"/><path stroke="#FFD6C5" stroke-linecap="round" stroke-width=".286" d="M12.153 14.783c.323-.692 1.3-2.16 2.63-2.492M25.026 14.783c-.323-.692-1.163-2.16-2.492-2.492"/><path stroke="#73473F" stroke-linecap="round" stroke-width=".6" d="M24.887 16.305c-.83 1.108-2.104 3.489-.553 4.153 1.938.83 2.768-2.076.553-4.153ZM9.661 18.243c.738-.692 2.768-1.66 4.983 0M10.492 19.212c.461-.507 1.771-1.218 3.322 0M11.322 20.181c.277-.23.97-.554 1.523 0"/><path fill="#FFD6C5" d="m18.324 19.27-4.591 4.591a.277.277 0 0 0 .195.473h1.713c.071 0 .14-.028.19-.076l2.493-2.368a.277.277 0 0 1 .387.004l2.358 2.359a.277.277 0 0 0 .196.08h1.847c.246 0 .37-.298.195-.472l-4.591-4.592a.277.277 0 0 0-.392 0Z"/><path fill="#FFD6C5" d="M14.644 28.486v-4.019c0-.084.039-.164.105-.216l1.837-1.463 1.73-1.73a.277.277 0 0 1 .373-.017l2.649 2.208a.28.28 0 0 1 .034.034l.823.977c.04.048.063.107.065.17l.127 4.048a.277.277 0 0 1-.277.285h-7.189a.277.277 0 0 1-.277-.277Z"/><path stroke="#73473F" stroke-linecap="round" stroke-width=".6" d="M17.413 28.763v-3.045c0-.153.123-.277.276-.277h1.662c.152 0 .276.124.276.277v3.045"/><circle cx="18.658" cy="11.184" r="1.799" stroke="#73473F" stroke-width=".6"/><path stroke="#73473F" stroke-linecap="round" stroke-width=".6" d="M17.828 12.77v1.32c0 .153.124.277.277.277h1.245a.277.277 0 0 0 .277-.277v-1.384"/></svg>