<svg xmlns="http://www.w3.org/2000/svg" width="217" height="217" fill="none"><circle cx="106.5" cy="106.5" r="106.5" stroke="#fff" stroke-width="3" transform="matrix(-1 0 0 1 215 2)"/><path fill="#fff" d="M111.61 95.416a1.5 1.5 0 0 1-2.827-1.003l2.827 1.003ZM55.142 75.941l1.458-.353-1.458.353ZM96.399 51.5H75.552v-3H96.4v3ZM56.6 75.588l4.828 19.94-2.916.705-4.827-19.939 2.916-.706Zm52.184 18.825 5.994-16.892 2.827 1.003-5.994 16.892-2.827-1.003ZM75.553 51.5c-12.627 0-21.924 11.817-18.953 24.088l-2.916.706c-3.428-14.16 7.3-27.794 21.868-27.794v3Zm20.846-3c15.54 0 26.402 15.379 21.205 30.024l-2.827-1.003c4.503-12.693-4.91-26.021-18.378-26.021v-3Z"/><path stroke="#fff" stroke-width="3" d="M66.84 88.636 61.246 70.88c-1.828-5.8 2.503-11.705 8.584-11.705h31.342c6.12 0 10.455 5.976 8.555 11.794l-5.77 17.666"/><path stroke="#fff" stroke-linecap="round" stroke-width="3" d="M84.733 127.268a14.004 14.004 0 0 1-11.695-21.146 14.002 14.002 0 0 1 12.118-6.86 14.006 14.006 0 0 1 12.047 6.983"/><path stroke="#fff" stroke-linecap="round" stroke-width="3" d="M82.187 138.551H66.351a30.908 30.908 0 1 1 42.011-44.874c1.256 1.861 3.767 6.357 3.767 9.448"/><ellipse cx="18.748" cy="26.584" stroke="#fff" stroke-width="3" rx="18.748" ry="26.584" transform="scale(-1 1) rotate(18.448 -383.371 -307.05)"/><path stroke="#fff" stroke-width="3" d="m119.158 160.465 8.629-4.073c11.778-5.559 16.595-19.779 10.62-31.352l-3.058-5.922c-5.723-11.085-19.239-15.586-30.466-10.147l-3.244 1.572"/><path fill="#fff" d="M165.281 116.866a1.5 1.5 0 1 1-2.953.528l2.953-.528Zm-29.488-22.918-.294-1.47.024-.005.024-.004.246 1.48Zm26.535 23.446c-.77-4.313-3.046-10.603-7.3-15.399-4.195-4.73-10.3-8.015-18.988-6.567l-.493-2.96c9.857-1.642 16.953 2.156 21.725 7.536 4.712 5.313 7.17 12.16 8.009 16.862l-2.953.528Zm-26.24-21.975c-1.285.257-3.267 1.186-4.747 3.15-1.447 1.921-2.512 4.962-1.792 9.64l-2.965.456c-.826-5.367.363-9.25 2.361-11.9 1.964-2.608 4.619-3.9 6.554-4.288l.589 2.942Zm27.184 26.483a1.498 1.498 0 1 1 2.997.115l-2.997-.115Zm2.997.115c-.167 4.341-1.461 10.566-5.002 14.855-1.801 2.181-4.206 3.883-7.324 4.523-3.104.636-6.757.188-11.013-1.636l1.181-2.758c3.858 1.653 6.878 1.937 9.229 1.455 2.337-.479 4.171-1.747 5.613-3.494 2.946-3.568 4.164-9.03 4.319-13.06l2.997.115Z"/><path fill="#fff" d="M135.5 95.29a1.5 1.5 0 1 1-1.342-2.683l1.342 2.683Zm11.886-7.62-.671-1.341.192-.096.211-.039.268 1.476Zm27.045 19.318 1.427-.464-1.427.464Zm-40.273-14.381 12.557-6.278 1.342 2.683L135.5 95.29l-1.342-2.683Zm12.96-6.413c3.836-.697 9.465-.382 14.929 2.51 5.507 2.915 10.74 8.39 13.811 17.82l-2.853.929c-2.848-8.748-7.596-13.575-12.361-16.097-4.808-2.545-9.743-2.8-12.99-2.21l-.536-2.952Zm28.74 20.33c1.756 5.393 2.005 9.975 1.213 13.878-.792 3.905-2.609 7.036-4.836 9.554-4.392 4.965-10.518 7.65-13.513 9.262l-1.422-2.641c3.284-1.769 8.748-4.155 12.688-8.608 1.937-2.191 3.472-4.856 4.143-8.164.672-3.311.499-7.362-1.126-12.352l2.853-.929Z"/><path stroke="#fff" stroke-width="3" d="m133.022 115.082 8.032-4.471a7.077 7.077 0 1 1 6.202 12.699l-7.649 3.241"/></svg>