<svg xmlns="http://www.w3.org/2000/svg" width="144" height="144" fill="none"><path stroke="#000" stroke-width="3" d="M13 141.99h119V90.51h-20.101V52.999c-.537-3.857-3.619-11.493-11.66-11.173h-10.05M111.898 90.511v51.879"/><path stroke="#000" stroke-width="3" d="M61.242 141.991V108.07h24.524v33.921M20.992 142.198v-27.53h9.432l.337 27.53M117.791 141.31v-26.642h9.432l.337 26.642"/><path stroke="#000" stroke-width="3" d="M59.233 41.825H44.76c-2.814 0-8.362 1.756-8.04 8.78v36.714h-19.7c-1.474 0-4.262.957-3.619 4.788v51.658M36.719 87.318v54.673M67.91 65.15H52.163v10.815H67.91V65.15ZM67.91 89.893H52.163v10.814H67.91V89.893ZM96.052 65.15H80.307v10.815h15.745V65.15ZM96.052 89.893H80.307v10.814h15.745V89.893ZM88.815 41.825c0 7.822-6.392 14.186-14.305 14.186-7.913 0-14.305-6.364-14.305-14.186 0-7.823 6.392-14.187 14.305-14.187 7.913 0 14.305 6.364 14.305 14.187Z"/><path stroke="#000" stroke-linecap="round" stroke-width="3" d="M73.783 34.641v13.57M80.942 41.103l-13.669.167"/></svg>