<svg xmlns="http://www.w3.org/2000/svg" width="217" height="217" fill="none"><circle cx="108.5" cy="108.5" r="106.5" stroke="#fff" stroke-width="3"/><path stroke="#fff" stroke-linecap="round" stroke-width="3" d="M96.5 128c1.167.333 3.6 1.4 4 3M53 162.5h107.5"/><circle cx="82" cy="112" r="9" stroke="#fff" stroke-width="3"/><path stroke="#fff" stroke-linecap="round" stroke-width="3" d="M73 114c-1.667.5-4.5 3.6-4.5 10v20c.167 3.167.8 9.3 6 8.5"/><path stroke="#fff" stroke-linecap="round" stroke-width="3" d="M68.5 126c-2.833.833-8.5 3.8-8.5 9 0 6.5 0 17.5 7.5 18l7 .5m26-16.5v10c-.167 1.5-1.7 4.6-6.5 5h-6m9.5-.5 5 10"/><path stroke="#fff" stroke-linecap="round" stroke-width="3" d="M91 115c1.667.5 5 3.1 5 9.5v20c-.167 3.167-2.8 7.8-8 7m-2.5-48c.833-2.167 3.1-6.5 5.5-6.5h12c1.5 0 2.5 1.46 2.5 3.5 0 1.5-.5 3-3.5 3h-8c-1.333.333-4.1 1.1-4.5 3.5m-11-3.5c-.833-2.167-2.546-5.5-4.946-5.5h-12c-1 .333-2.9 1.5-2.5 3.5.5 2.5.5 3 3.5 3h8c1.334.333 3.546.1 3.946 2.5"/><circle cx="75.5" cy="127.5" r="3.5" stroke="#fff" stroke-width="3"/><circle cx="88.5" cy="127.5" r="3.5" stroke="#fff" stroke-width="3"/><path stroke="#fff" stroke-width="3" d="M75 141.5a6.5 6.5 0 1 1 13 0v14a6.5 6.5 0 1 1-13 0v-14Z"/><circle cx="64.5" cy="81.5" r="6.5" stroke="#fff" stroke-width="3"/><circle cx="98.5" cy="82.5" r="6.5" stroke="#fff" stroke-width="3"/><path stroke="#fff" stroke-linecap="round" stroke-width="3" d="M94 87.5c-1.333.667-3.3 3.1-2.5 9.5M69 86c1.5 1.333 4.2 5.5 3 11.5m70 65v-54"/><rect width="54" height="54" x="116" y="54" stroke="#fff" stroke-width="3" rx="13"/><path stroke="#fff" stroke-linecap="round" stroke-width="3" d="M65.5 95v12.5M99 95v12.5"/><path fill="#fff" d="M134.036 95V67.364h9.851c2.15 0 3.931.391 5.344 1.174 1.412.782 2.469 1.853 3.171 3.211.702 1.35 1.053 2.87 1.053 4.561 0 1.7-.356 3.23-1.067 4.588-.701 1.35-1.763 2.42-3.184 3.212-1.413.783-3.189 1.174-5.33 1.174h-6.775V81.75h6.397c1.358 0 2.46-.234 3.306-.702.845-.477 1.466-1.125 1.862-1.943.396-.819.594-1.75.594-2.794 0-1.043-.198-1.97-.594-2.78-.396-.81-1.021-1.443-1.876-1.902-.845-.459-1.961-.688-3.346-.688h-5.236V95h-4.17Z"/></svg>