<svg xmlns="http://www.w3.org/2000/svg" width="144" height="144" fill="none"><path stroke="#000" stroke-width="3" d="M28.054 37.346c-.091-3.205 1.374-9.56 7.967-9.34 6.593.22 51.647.091 73.35 0 2.381.366 7.308 2.747 7.967 9.34l8.242 29.67c1.099 5.403.714 16.593-9.615 18.131-10.33 1.539-15.293-10.897-16.484-17.307-.732 5.77-4.505 17.307-13.735 17.307-9.231 0-12.638-10.989-13.187-16.483.183 6.044-2.418 17.967-14.285 17.308-11.868-.66-13.187-12.363-12.363-18.132-.64 7.417-5.824 21.263-21.428 17.307-2.839-1.19-8.022-6.483-6.044-18.131l9.615-29.67ZM119.625 91.75v49.875h-92.25L27 92.5"/><path stroke="#000" stroke-width="3" d="m88.5 140.5-.375-40.875h22.125V140.5M38.625 99.25v24l38.25.375V99.25h-38.25Z"/></svg>