<svg xmlns="http://www.w3.org/2000/svg" width="217" height="217" fill="none"><circle cx="108.5" cy="108.5" r="106.5" stroke="#fff" stroke-width="3"/><path stroke="#fff" stroke-width="3" d="M65 61h87v58H65z"/><path stroke="#fff" stroke-linecap="round" stroke-width="3" d="M88.201 61.483c-.483 8.7-5.703 28.227-22.717 36.734m0-.484h9.667m-4.35-7.25-3.383 7.25m0-.483c3.061.161 9.57 4.64 11.117 21.267m49.782-57.034c.483 8.7 5.703 28.227 22.716 36.734m0-.484h-9.666m4.349-7.25 3.384 7.25"/><path stroke="#fff" stroke-linecap="round" stroke-width="3" d="M149.1 97.25c-3.062.161-9.57 4.64-11.117 21.267m-.966-56.55v6.283m7.25-6.767v6.767m-57.517.967h42.533m-56.066-7.734v6.284m6.766-6.284v6.767m3.384 87.483V140.4a4 4 0 0 0-4-4H69a4 4 0 0 0-4 4v15.333m19.334-23.2V128.8a4 4 0 0 0-4-4H69.966a4 4 0 0 0-4 4v3.733"/><path stroke="#fff" stroke-linecap="round" stroke-width="3" d="M100.766 155.733V140.4a4 4 0 0 0-4-4h-9.4a4 4 0 0 0-4 4v15.333m17.4-23.2V128.8a4 4 0 0 0-4-4h-8.433a4 4 0 0 0-4 4v3.733m33.834 23.2V140.4a4 4 0 0 0-4-4h-9.4a4 4 0 0 0-4 4v15.333m16.433-23.2V128.8a4 4 0 0 0-4-4h-8.433a4 4 0 0 0-4 4v3.733m33.833 23.2V140.4a4 4 0 0 0-4-4h-8.433a4 4 0 0 0-4 4v15.333m15.467-23.2V128.8a4 4 0 0 0-4-4H121.2a4 4 0 0 0-4 4v3.733m34.8 23.2V140.4a4 4 0 0 0-4-4h-9.4a4 4 0 0 0-4 4v15.333m16.434-23.2V128.8a4 4 0 0 0-4-4h-9.4a4 4 0 0 0-4 4v3.733"/></svg>