<svg xmlns="http://www.w3.org/2000/svg" width="144" height="144" fill="none"><path stroke="#000" stroke-width="3" d="M18.926 33.462v-6.677c0-.433.351-.785.785-.785h103.283c.434 0 .786.352.786.785v6.677M19.713 65.271v64.012M19.713 71.897h103.676M19.713 86.477h103.676M46.023 70.376v15.709"/><rect width="112.315" height="10.996" x="15" y="128.105" stroke="#000" stroke-width="3" rx="1.571"/><path stroke="#000" stroke-width="3" d="M27.566 128.497V93.153c0-.433.352-.785.786-.785h50.66c.433 0 .785.352.785.785v35.344"/><path stroke="#000" stroke-width="3" d="M35.03 128.497v-28.275c0-.433.35-.785.785-.785H71.55c.434 0 .786.352.786.785v28.275M53.092 99.437v28.668M89.223 128.105V93.153c0-.433.351-.785.785-.785h25.526c.434 0 .786.352.786.785v35.344"/><rect width="14.923" height="14.138" x="95.113" y="99.044" stroke="#000" stroke-width="3" rx="1.571"/><path stroke="#000" stroke-width="3" d="M15 34.345h113.101v32.202H15z"/><path fill="#000" d="M36.683 58.729V42.395h6.54c1.202 0 2.204.178 3.007.534.803.357 1.406.851 1.81 1.484.405.627.607 1.35.607 2.17 0 .637-.128 1.198-.383 1.682a3.304 3.304 0 0 1-1.053 1.18 4.317 4.317 0 0 1-1.515.646v.16a3.658 3.658 0 0 1 1.746.526c.548.325.992.78 1.332 1.364.34.58.51 1.27.51 2.074 0 .866-.215 1.64-.645 2.32-.426.676-1.056 1.21-1.89 1.604-.835.393-1.864.59-3.087.59h-6.979Zm3.454-2.823h2.815c.962 0 1.664-.184 2.106-.55.441-.373.662-.867.662-1.484 0-.452-.11-.85-.327-1.197a2.22 2.22 0 0 0-.934-.813c-.398-.197-.874-.295-1.427-.295h-2.895v4.339Zm0-6.676h2.56c.473 0 .893-.082 1.26-.247.372-.17.665-.41.877-.718.218-.308.327-.678.327-1.109 0-.59-.21-1.066-.63-1.427-.414-.362-1.005-.543-1.77-.543h-2.624v4.044Zm17.13 9.499h-3.7l5.638-16.334h4.45l5.631 16.334h-3.7l-4.092-12.602h-.128l-4.1 12.602Zm-.231-6.42h8.74v2.695h-8.74V52.31Zm30.798-9.914v16.334H84.85l-7.106-10.28h-.12v10.28h-3.453V42.395h3.03l7.05 10.272h.144V42.395h3.438Zm5.773 16.334V42.395h3.453v7.202h.216l5.878-7.202h4.139l-6.061 7.313 6.133 9.02h-4.132l-4.474-6.715-1.699 2.074v4.642h-3.453Z"/><path stroke="#000" stroke-width="3" d="M123.389 65.271v64.012M71.943 70.376v15.709M97.074 70.376v15.709"/></svg>