<svg xmlns="http://www.w3.org/2000/svg" width="37" height="37" fill="none"><circle cx="18.5" cy="18.5" r="18.5" fill="#73473F"/><path fill="#FFD6C5" d="M23.88 15.609c1.185 1.215 1.849 2.66 1.849 4.358l-.269 2.643-2.207 1.563-5.61.552-4.137-1.196-.78-3.694a6.506 6.506 0 0 1 11.153-4.226Z"/><path fill="#AA7B73" d="M10.115 19.78c3.173-.484 6.393 1.129 8.845 2.975 3.271-2.602 8.07-3.129 9.836-2.974v6.506h-18.68V19.78Z"/><path stroke="#FFD6C5" stroke-linecap="round" stroke-width=".552" d="M11.416 17.271 9 16.25M14.638 13.12l-1.606-2.075M19.29 11.623 19.225 9M24.056 13.218l1.521-2.138M27.03 17.29l2.384-1.095"/></svg>