<svg xmlns="http://www.w3.org/2000/svg" width="37" height="37" fill="none"><circle cx="18.5" cy="18.5" r="18.5" fill="#73473F"/><path fill="#FFD6C5" d="M12.17 26.924v-1.75c0-.24-.31-.336-.4-.56-.027-.068.02-.153.088-.227a.341.341 0 0 1 .219-.1l1.785-.199a.29.29 0 0 1 .11.01l.143.04a.23.23 0 0 1 .04.427.23.23 0 0 0-.128.205v2.263c0 .241.196.437.437.437h2.623a.437.437 0 0 0 .438-.437V14.858a.437.437 0 0 0-.26-.4l-1.53-.68a.437.437 0 0 0-.355 0l-4.481 1.992a.437.437 0 0 0-.26.4v10.753c0 .242.196.438.437.438h.656a.437.437 0 0 0 .437-.438ZM19.383 27.033v-2.876a.184.184 0 0 0-.184-.184.184.184 0 0 1-.18-.14l-.01-.04a.237.237 0 0 1 .2-.292l2.155-.28a.236.236 0 0 1 .105.457l-.049.016a.263.263 0 0 0-.18.25v3.089c0 .241.196.437.438.437h5.246a.437.437 0 0 0 .437-.437V11.155c0-.18-.11-.34-.277-.406l-4.26-1.685a.437.437 0 0 0-.325.002l-4.155 1.681a.437.437 0 0 0-.273.406v15.88c0 .241.196.437.437.437h.438a.437.437 0 0 0 .437-.437Z"/><path stroke="#FFD6C5" stroke-linecap="round" stroke-width=".706" d="M9 28.563h20"/><path stroke="#FFD6C5" stroke-linecap="round" stroke-width=".219" d="M23.973 10.858v13.88"/><path fill="#73473F" d="m18.945 12.17.875-.328.109 1.639-.984.219v-1.53ZM19.055 15.011l.874-.328.11 1.64-.984.218v-1.53ZM19.055 17.634l.874-.328.11 1.64-.984.218v-1.53ZM19.055 20.148h.765v1.53h-.765v-1.53ZM20.803 11.404l.875-.328.109 1.64-.984.219v-1.53ZM20.913 14.246l.874-.328.11 1.64-.984.218v-1.53ZM20.913 16.869l.874-.328.11 1.64-.984.218v-1.53ZM20.913 19.929l.765-.11v1.64h-.765v-1.53ZM12.497 16.432l-.765.328.11 1.202.655-.219v-1.311ZM12.607 18.618l-.765.327.109 1.203.656-.219v-1.311ZM12.607 20.803l-.765.328.109 1.202.656-.218v-1.312ZM13.918 15.885l-.765.328.11 1.202.655-.218v-1.312ZM14.027 18.071l-.765.328.11 1.202.655-.218V18.07ZM14.027 20.257l-.765.328.11 1.202.655-.219v-1.311Z"/><path stroke="#FFD6C5" stroke-linecap="round" stroke-width=".219" d="M25.066 10.858v13.88M26.158 10.858v13.88"/></svg>