<svg xmlns="http://www.w3.org/2000/svg" width="144" height="144" fill="none"><mask id="a" width="122" height="117" x="11" y="26" maskUnits="userSpaceOnUse" style="mask-type:luminance"><path fill="#fff" d="M14.586 26.411v57.382h114.765V26.411H14.586Zm12.983 74.213c-3.6 0-6.192.256-7.872.768-1.683.513-2.418 1.102-3.056 2.203-.374.641-.656 1.589-.874 2.793 1.25.179 2.398.384 3.454.717 2.561.768 4.654 2.305 5.917 4.431 1.263-2.126 3.35-3.663 5.912-4.431 2.288-.692 4.978-.974 8.308-1.025-.205-1.076-.461-1.896-.82-2.485-.64-1.101-1.383-1.69-3.074-2.203-1.69-.512-4.288-.768-7.895-.768Zm29.593 0c-3.612 0-6.2.256-7.864.768-1.691.513-2.434 1.102-3.075 2.203-.358.615-.64 1.486-.845 2.639 1.921.154 3.586.41 5.072.871 2.562.768 4.663 2.28 5.918 4.431 1.255-2.151 3.33-3.663 5.917-4.431 1.896-.589 4.073-.871 6.66-.974-.204-1.076-.46-1.921-.82-2.536-.64-1.101-1.382-1.69-3.073-2.203-1.69-.512-4.278-.768-7.89-.768Zm29.587 0c-3.611 0-6.199.256-7.864.768-1.69.513-2.434 1.102-3.074 2.203-.359.615-.615 1.46-.82 2.536 2.588.103 4.79.385 6.686.974 2.562.768 4.663 2.28 5.918 4.431 1.255-2.151 3.33-3.663 5.917-4.431 1.486-.461 3.151-.717 5.047-.871-.205-1.153-.487-2.024-.845-2.639-.64-1.101-1.384-1.69-3.074-2.203-1.691-.512-4.278-.768-7.89-.768Zm29.589 0c-3.613 0-6.2.256-7.865.768-1.691.513-2.434 1.102-3.074 2.203-.359.589-.615 1.409-.82 2.485 3.355.051 6.046.333 8.326 1.025 2.561.768 4.661 2.28 5.917 4.431 1.256-2.151 3.33-3.663 5.918-4.431 1.05-.333 2.202-.538 3.432-.717-.205-1.204-.486-2.152-.871-2.793-.64-1.101-1.383-1.69-3.074-2.203-1.69-.512-4.278-.768-7.889-.768Zm-75.597 10.067c-3.817 0-6.558.257-8.35.82-1.791.538-2.606 1.178-3.3 2.408-.648 1.127-1.04 3.023-1.281 5.713 2.751.102 5.041.358 7.014.973 2.562.768 4.662 2.28 5.917 4.431 1.256-2.151 3.33-3.663 5.918-4.431 1.972-.615 4.278-.897 7.045-.973-.257-2.69-.64-4.586-1.281-5.713-.692-1.204-1.512-1.87-3.33-2.408-1.794-.563-4.535-.82-8.352-.82Zm31.228 0c-3.817 0-6.558.257-8.352.82-1.793.538-2.613 1.178-3.304 2.408-.64 1.127-1.025 3.023-1.281 5.713 2.767.102 5.047.358 7.019.973 2.562.768 4.662 2.28 5.918 4.431 1.255-2.151 3.33-3.663 5.917-4.431 1.973-.615 4.278-.897 7.045-.973-.256-2.69-.64-4.586-1.281-5.713-.692-1.204-1.512-1.87-3.33-2.408-1.793-.563-4.535-.82-8.351-.82Zm31.226 0c-3.816 0-6.557.257-8.35.82-1.794.538-2.613 1.178-3.305 2.408-.64 1.127-1.025 3.023-1.281 5.713 2.767.102 5.047.358 7.02.973 2.56.768 4.661 2.28 5.916 4.431 1.255-2.151 3.331-3.663 5.918-4.431 1.973-.615 4.278-.897 7.045-.973-.257-2.69-.641-4.586-1.281-5.713-.692-1.204-1.511-1.87-3.33-2.408-1.794-.563-4.534-.82-8.352-.82ZM11 110.716v12.425c1.189-1.153 2.7-2.024 4.427-2.536 1.988-.615 4.283-.897 7.042-.973-.239-2.69-.636-4.586-1.281-5.713-.694-1.204-1.511-1.87-3.312-2.408-1.555-.487-3.828-.743-6.876-.795Zm121.938 0c-3.049.052-5.329.308-6.866.795-1.794.538-2.613 1.178-3.305 2.408-.64 1.127-1.024 3.023-1.28 5.713 2.766.102 5.046.358 7.018.973 1.716.512 3.228 1.383 4.433 2.536v-12.425ZM25.115 124.191c-3.802 0-6.548.256-8.34.82-1.797.538-2.609 1.179-3.303 2.408-1.263 2.203-1.575 7.3-1.621 15.55h26.56c-.052-8.25-.36-13.347-1.615-15.55-.691-1.204-1.511-1.87-3.33-2.408-1.788-.564-4.54-.82-8.351-.82Zm31.227 0c-3.817 0-6.558.256-8.351.82-1.793.538-2.613 1.179-3.305 2.408-1.255 2.203-1.562 7.3-1.614 15.55h26.565c-.05-8.25-.358-13.347-1.614-15.55-.691-1.204-1.51-1.87-3.33-2.408-1.793-.564-4.534-.82-8.35-.82Zm31.227 0c-3.817 0-6.558.256-8.35.82-1.794.538-2.614 1.179-3.305 2.408-1.256 2.203-1.563 7.3-1.614 15.55h26.565c-.052-8.25-.359-13.347-1.614-15.55-.692-1.204-1.512-1.87-3.33-2.408-1.794-.564-4.535-.82-8.352-.82Zm31.227 0c-3.791 0-6.557.256-8.35.82-1.794.538-2.614 1.179-3.305 2.408-1.256 2.203-1.563 7.3-1.614 15.55h26.564c-.051-8.25-.358-13.347-1.613-15.55-.692-1.204-1.512-1.87-3.331-2.408-1.793-.564-4.534-.82-8.351-.82Z"/></mask><g mask="url(#a)"><path stroke="#000" stroke-width="5.5" d="M14.586 26.411v57.382h114.765V26.411H14.586Zm12.983 74.213c-3.6 0-6.192.256-7.872.768-1.683.513-2.418 1.102-3.056 2.203-.374.641-.656 1.589-.874 2.793 1.25.179 2.398.384 3.454.717 2.561.768 4.654 2.305 5.917 4.431 1.263-2.126 3.35-3.663 5.912-4.431 2.288-.692 4.978-.974 8.308-1.025-.205-1.076-.461-1.896-.82-2.485-.64-1.101-1.383-1.69-3.074-2.203-1.69-.512-4.288-.768-7.895-.768Zm29.593 0c-3.612 0-6.2.256-7.864.768-1.691.513-2.434 1.102-3.075 2.203-.358.615-.64 1.486-.845 2.639 1.921.154 3.586.41 5.072.871 2.562.768 4.663 2.28 5.918 4.431 1.255-2.151 3.33-3.663 5.917-4.431 1.896-.589 4.073-.871 6.66-.974-.204-1.076-.46-1.921-.82-2.536-.64-1.101-1.382-1.69-3.073-2.203-1.69-.512-4.278-.768-7.89-.768Zm29.587 0c-3.611 0-6.199.256-7.864.768-1.69.513-2.434 1.102-3.074 2.203-.359.615-.615 1.46-.82 2.536 2.588.103 4.79.385 6.686.974 2.562.768 4.663 2.28 5.918 4.431 1.255-2.151 3.33-3.663 5.917-4.431 1.486-.461 3.151-.717 5.047-.871-.205-1.153-.487-2.024-.845-2.639-.64-1.101-1.384-1.69-3.074-2.203-1.691-.512-4.278-.768-7.89-.768Zm29.589 0c-3.613 0-6.2.256-7.865.768-1.691.513-2.434 1.102-3.074 2.203-.359.589-.615 1.409-.82 2.485 3.355.051 6.046.333 8.326 1.025 2.561.768 4.661 2.28 5.917 4.431 1.256-2.151 3.33-3.663 5.918-4.431 1.05-.333 2.202-.538 3.432-.717-.205-1.204-.486-2.152-.871-2.793-.64-1.101-1.383-1.69-3.074-2.203-1.69-.512-4.278-.768-7.889-.768Zm-75.597 10.067c-3.817 0-6.558.257-8.35.82-1.791.538-2.606 1.178-3.3 2.408-.648 1.127-1.04 3.023-1.281 5.713 2.751.102 5.041.358 7.014.973 2.562.768 4.662 2.28 5.917 4.431 1.256-2.151 3.33-3.663 5.918-4.431 1.972-.615 4.278-.897 7.045-.973-.257-2.69-.64-4.586-1.281-5.713-.692-1.204-1.512-1.87-3.33-2.408-1.794-.563-4.535-.82-8.352-.82Zm31.228 0c-3.817 0-6.558.257-8.352.82-1.793.538-2.613 1.178-3.304 2.408-.64 1.127-1.025 3.023-1.281 5.713 2.767.102 5.047.358 7.019.973 2.562.768 4.662 2.28 5.918 4.431 1.255-2.151 3.33-3.663 5.917-4.431 1.973-.615 4.278-.897 7.045-.973-.256-2.69-.64-4.586-1.281-5.713-.692-1.204-1.512-1.87-3.33-2.408-1.793-.563-4.535-.82-8.351-.82Zm31.226 0c-3.816 0-6.557.257-8.35.82-1.794.538-2.613 1.178-3.305 2.408-.64 1.127-1.025 3.023-1.281 5.713 2.767.102 5.047.358 7.02.973 2.56.768 4.661 2.28 5.916 4.431 1.255-2.151 3.331-3.663 5.918-4.431 1.973-.615 4.278-.897 7.045-.973-.257-2.69-.641-4.586-1.281-5.713-.692-1.204-1.511-1.87-3.33-2.408-1.794-.563-4.534-.82-8.352-.82ZM11 110.716v12.425c1.189-1.153 2.7-2.024 4.427-2.536 1.988-.615 4.283-.897 7.042-.973-.239-2.69-.636-4.586-1.281-5.713-.694-1.204-1.511-1.87-3.312-2.408-1.555-.487-3.828-.743-6.876-.795Zm121.938 0c-3.049.052-5.329.308-6.866.795-1.794.538-2.613 1.178-3.305 2.408-.64 1.127-1.024 3.023-1.28 5.713 2.766.102 5.046.358 7.018.973 1.716.512 3.228 1.383 4.433 2.536v-12.425ZM25.115 124.191c-3.802 0-6.548.256-8.34.82-1.797.538-2.609 1.179-3.303 2.408-1.263 2.203-1.575 7.3-1.621 15.55h26.56c-.052-8.25-.36-13.347-1.615-15.55-.691-1.204-1.511-1.87-3.33-2.408-1.788-.564-4.54-.82-8.351-.82Zm31.227 0c-3.817 0-6.558.256-8.351.82-1.793.538-2.613 1.179-3.305 2.408-1.255 2.203-1.562 7.3-1.614 15.55h26.565c-.05-8.25-.358-13.347-1.614-15.55-.691-1.204-1.51-1.87-3.33-2.408-1.793-.564-4.534-.82-8.35-.82Zm31.227 0c-3.817 0-6.558.256-8.35.82-1.794.538-2.614 1.179-3.305 2.408-1.256 2.203-1.563 7.3-1.614 15.55h26.565c-.052-8.25-.359-13.347-1.614-15.55-.692-1.204-1.512-1.87-3.33-2.408-1.794-.564-4.535-.82-8.352-.82Zm31.227 0c-3.791 0-6.557.256-8.35.82-1.794.538-2.614 1.179-3.305 2.408-1.256 2.203-1.563 7.3-1.614 15.55h26.564c-.051-8.25-.358-13.347-1.613-15.55-.692-1.204-1.512-1.87-3.331-2.408-1.793-.564-4.534-.82-8.351-.82Z"/></g></svg>